<!-- 4个预测步骤的右移与掩码卡片（黑色部分）配合SVG（纵向排列，解决过宽问题，可直接复制使用） -->
<svg width="650" height="850" viewBox="0 0 650 850">
  <!-- 总标题 -->
  <text x="300" y="30" text-anchor="middle" font-size="16" font-weight="bold">全预测步骤：Token 序列与掩码卡片（黑色部分）配合示意图</text>
  
  <!-- 1. 第1步：预测“我” -->
  <text x="300" y="80" text-anchor="middle" font-size="14" font-weight="bold">第1步：预测“我”</text>
  <!-- Token 序列 -->
  <rect x="50" y="100" width="250" height="60" fill="none" stroke="black" stroke-width="2"/>
  <text x="175" y="95" text-anchor="middle" font-size="12">Token 序列（有右移空白）</text>
  <rect x="60" y="110" width="40" height="40" fill="none" stroke="gray" stroke-width="1"/><text x="80" y="135" text-anchor="middle" font-size="12">空白</text>
  <rect x="105" y="110" width="40" height="40" fill="none" stroke="gray" stroke-width="1"/><text x="125" y="135" text-anchor="middle" font-size="12">我</text>
  <rect x="150" y="110" width="40" height="40" fill="none" stroke="gray" stroke-width="1"/><text x="170" y="135" text-anchor="middle" font-size="12">是</text>
  <rect x="195" y="110" width="40" height="40" fill="none" stroke="gray" stroke-width="1"/><text x="215" y="135" text-anchor="middle" font-size="12">印刻</text>
  <rect x="240" y="110" width="40" height="40" fill="none" stroke="gray" stroke-width="1"/><text x="260" y="135" text-anchor="middle" font-size="12">君</text>
  <!-- 掩码卡片（黑色部分） -->
  <rect x="350" y="100" width="250" height="60" fill="none" stroke="black" stroke-width="2"/>
  <text x="475" y="95" text-anchor="middle" font-size="12">掩码卡片（黑色部分）</text>
  <rect x="360" y="110" width="40" height="40" fill="none" stroke="gray" stroke-width="1"/><text x="380" y="135" text-anchor="middle" font-size="12">空白</text>
  <rect x="405" y="110" width="40" height="40" fill="black"/><text x="425" y="135" text-anchor="middle" font-size="12" fill="white">遮挡</text>
  <rect x="450" y="110" width="40" height="40" fill="black"/><text x="470" y="135" text-anchor="middle" font-size="12" fill="white">遮挡</text>
  <rect x="495" y="110" width="40" height="40" fill="black"/><text x="515" y="135" text-anchor="middle" font-size="12" fill="white">遮挡</text>
  <rect x="540" y="110" width="40" height="40" fill="black"/><text x="560" y="135" text-anchor="middle" font-size="12" fill="white">遮挡</text>
  <!-- 预测目标 -->
  <rect x="220" y="170" width="120" height="30" fill="none" stroke="blue" stroke-width="1.5"/>
  <text x="280" y="190" text-anchor="middle" font-size="12" fill="blue">预测目标：我</text>
  <!-- 步骤间距分隔线 -->
  <line x1="50" y1="220" x2="550" y2="220" stroke="#eee" stroke-width="1"/>

  <!-- 2. 第2步：预测“是” -->
  <text x="300" y="270" text-anchor="middle" font-size="14" font-weight="bold">第2步：预测“是”</text>
  <!-- Token 序列 -->
  <rect x="50" y="290" width="250" height="60" fill="none" stroke="black" stroke-width="2"/>
  <text x="175" y="285" text-anchor="middle" font-size="12">Token 序列（有右移空白）</text>
  <rect x="60" y="300" width="40" height="40" fill="none" stroke="gray" stroke-width="1"/><text x="80" y="325" text-anchor="middle" font-size="12">空白</text>
  <rect x="105" y="300" width="40" height="40" fill="none" stroke="gray" stroke-width="1"/><text x="125" y="325" text-anchor="middle" font-size="12">我</text>
  <rect x="150" y="300" width="40" height="40" fill="none" stroke="gray" stroke-width="1"/><text x="170" y="325" text-anchor="middle" font-size="12">是</text>
  <rect x="195" y="300" width="40" height="40" fill="none" stroke="gray" stroke-width="1"/><text x="215" y="325" text-anchor="middle" font-size="12">印刻</text>
  <rect x="240" y="300" width="40" height="40" fill="none" stroke="gray" stroke-width="1"/><text x="260" y="325" text-anchor="middle" font-size="12">君</text>
  <!-- 掩码卡片（黑色部分） -->
  <rect x="350" y="290" width="250" height="60" fill="none" stroke="black" stroke-width="2"/>
  <text x="475" y="285" text-anchor="middle" font-size="12">掩码卡片（黑色部分）</text>
  <rect x="360" y="300" width="40" height="40" fill="none" stroke="gray" stroke-width="1"/><text x="380" y="325" text-anchor="middle" font-size="12">空白</text>
  <rect x="405" y="300" width="40" height="40" fill="none" stroke="gray" stroke-width="1"/><text x="425" y="325" text-anchor="middle" font-size="12">我</text>
  <rect x="450" y="300" width="40" height="40" fill="black"/><text x="470" y="325" text-anchor="middle" font-size="12" fill="white">遮挡</text>
  <rect x="495" y="300" width="40" height="40" fill="black"/><text x="515" y="325" text-anchor="middle" font-size="12" fill="white">遮挡</text>
  <rect x="540" y="300" width="40" height="40" fill="black"/><text x="560" y="325" text-anchor="middle" font-size="12" fill="white">遮挡</text>
  <!-- 预测目标 -->
  <rect x="220" y="360" width="120" height="30" fill="none" stroke="blue" stroke-width="1.5"/>
  <text x="280" y="380" text-anchor="middle" font-size="12" fill="blue">预测目标：是</text>
  <!-- 步骤间距分隔线 -->
  <line x1="50" y1="410" x2="550" y2="410" stroke="#eee" stroke-width="1"/>

  <!-- 3. 第3步：预测“印刻” -->
  <text x="300" y="460" text-anchor="middle" font-size="14" font-weight="bold">第3步：预测“印刻”</text>
  <!-- Token 序列 -->
  <rect x="50" y="480" width="250" height="60" fill="none" stroke="black" stroke-width="2"/>
  <text x="175" y="475" text-anchor="middle" font-size="12">Token 序列（有右移空白）</text>
  <rect x="60" y="490" width="40" height="40" fill="none" stroke="gray" stroke-width="1"/><text x="80" y="515" text-anchor="middle" font-size="12">空白</text>
  <rect x="105" y="490" width="40" height="40" fill="none" stroke="gray" stroke-width="1"/><text x="125" y="515" text-anchor="middle" font-size="12">我</text>
  <rect x="150" y="490" width="40" height="40" fill="none" stroke="gray" stroke-width="1"/><text x="170" y="515" text-anchor="middle" font-size="12">是</text>
  <rect x="195" y="490" width="40" height="40" fill="none" stroke="gray" stroke-width="1"/><text x="215" y="515" text-anchor="middle" font-size="12">印刻</text>
  <rect x="240" y="490" width="40" height="40" fill="none" stroke="gray" stroke-width="1"/><text x="260" y="515" text-anchor="middle" font-size="12">君</text>
  <!-- 掩码卡片（黑色部分） -->
  <rect x="350" y="480" width="250" height="60" fill="none" stroke="black" stroke-width="2"/>
  <text x="475" y="475" text-anchor="middle" font-size="12">掩码卡片（黑色部分）</text>
  <rect x="360" y="490" width="40" height="40" fill="none" stroke="gray" stroke-width="1"/><text x="380" y="515" text-anchor="middle" font-size="12">空白</text>
  <rect x="405" y="490" width="40" height="40" fill="none" stroke="gray" stroke-width="1"/><text x="425" y="515" text-anchor="middle" font-size="12">我</text>
  <rect x="450" y="490" width="40" height="40" fill="none" stroke="gray" stroke-width="1"/><text x="470" y="515" text-anchor="middle" font-size="12">是</text>
  <rect x="495" y="490" width="40" height="40" fill="black"/><text x="515" y="515" text-anchor="middle" font-size="12" fill="white">遮挡</text>
  <rect x="540" y="490" width="40" height="40" fill="black"/><text x="560" y="515" text-anchor="middle" font-size="12" fill="white">遮挡</text>
  <!-- 预测目标 -->
  <rect x="220" y="550" width="120" height="30" fill="none" stroke="blue" stroke-width="1.5"/>
  <text x="280" y="570" text-anchor="middle" font-size="12" fill="blue">预测目标：印刻</text>
  <!-- 步骤间距分隔线 -->
  <line x1="50" y1="600" x2="550" y2="600" stroke="#eee" stroke-width="1"/>

  <!-- 4. 第4步：预测“苹果” -->
  <text x="300" y="650" text-anchor="middle" font-size="14" font-weight="bold">第4步：预测“君”</text>
  <!-- Token 序列 -->
  <rect x="50" y="670" width="250" height="60" fill="none" stroke="black" stroke-width="2"/>
  <text x="175" y="665" text-anchor="middle" font-size="12">Token 序列（有右移空白）</text>
  <rect x="60" y="680" width="40" height="40" fill="none" stroke="gray" stroke-width="1"/><text x="80" y="705" text-anchor="middle" font-size="12">空白</text>
  <rect x="105" y="680" width="40" height="40" fill="none" stroke="gray" stroke-width="1"/><text x="125" y="705" text-anchor="middle" font-size="12">我</text>
  <rect x="150" y="680" width="40" height="40" fill="none" stroke="gray" stroke-width="1"/><text x="170" y="705" text-anchor="middle" font-size="12">是</text>
  <rect x="195" y="680" width="40" height="40" fill="none" stroke="gray" stroke-width="1"/><text x="215" y="705" text-anchor="middle" font-size="12">印刻</text>
  <rect x="240" y="680" width="40" height="40" fill="none" stroke="gray" stroke-width="1"/><text x="260" y="705" text-anchor="middle" font-size="12">君</text>
  <!-- 掩码卡片（黑色部分） -->
  <rect x="350" y="670" width="250" height="60" fill="none" stroke="black" stroke-width="2"/>
  <text x="475" y="665" text-anchor="middle" font-size="12">掩码卡片（黑色部分）</text>
  <rect x="360" y="680" width="40" height="40" fill="none" stroke="gray" stroke-width="1"/><text x="380" y="705" text-anchor="middle" font-size="12">空白</text>
  <rect x="405" y="680" width="40" height="40" fill="none" stroke="gray" stroke-width="1"/><text x="425" y="705" text-anchor="middle" font-size="12">我</text>
  <rect x="450" y="680" width="40" height="40" fill="none" stroke="gray" stroke-width="1"/><text x="470" y="705" text-anchor="middle" font-size="12">是</text>
  <rect x="495" y="680" width="40" height="40" fill="none" stroke="gray" stroke-width="1"/><text x="515" y="705" text-anchor="middle" font-size="12">印刻</text>
  <rect x="540" y="680" width="40" height="40" fill="black"/><text x="560" y="705" text-anchor="middle" font-size="12" fill="white">遮挡</text>
  <!-- 预测目标 -->
  <rect x="220" y="740" width="120" height="30" fill="none" stroke="blue" stroke-width="1.5"/>
  <text x="280" y="760" text-anchor="middle" font-size="12" fill="blue">预测目标：君</text>
  
  <!-- 配合逻辑说明 -->
  <text x="300" y="825" text-anchor="middle" font-size="12">逻辑：Token 序列提供错位素材，掩码卡片（黑色部分）随步骤递减遮挡范围，确保仅能参考前文</text>
</svg>
