<!-- 4个预测步骤的右移与掩码卡片配合SVG（分栏展示，可直接复制使用） -->
<svg width="1200" height="450" viewBox="0 0 1200 450">
  <!-- 总标题 -->
  <text x="600" y="30" text-anchor="middle" font-size="16" font-weight="bold">全预测步骤：右移卡片与掩码卡片配合示意图</text>
  
  <!-- 1. 第1步：预测“我” -->
  <text x="300" y="70" text-anchor="middle" font-size="14" font-weight="bold">第1步：预测“我”</text>
  <!-- 右移卡片 -->
  <rect x="50" y="90" width="250" height="60" fill="none" stroke="black" stroke-width="2"/>
  <text x="175" y="85" text-anchor="middle" font-size="12">右移卡片（答题素材卡）</text>
  <rect x="60" y="100" width="40" height="40" fill="none" stroke="gray" stroke-width="1"/><text x="80" y="125" text-anchor="middle" font-size="12">空白</text>
  <rect x="105" y="100" width="40" height="40" fill="none" stroke="gray" stroke-width="1"/><text x="125" y="125" text-anchor="middle" font-size="12">我</text>
  <rect x="150" y="100" width="40" height="40" fill="none" stroke="gray" stroke-width="1"/><text x="170" y="125" text-anchor="middle" font-size="12">爱</text>
  <rect x="195" y="100" width="40" height="40" fill="none" stroke="gray" stroke-width="1"/><text x="215" y="125" text-anchor="middle" font-size="12">吃</text>
  <!-- 掩码卡片 -->
  <rect x="350" y="90" width="250" height="60" fill="none" stroke="black" stroke-width="2"/>
  <text x="475" y="85" text-anchor="middle" font-size="12">掩码卡片（黑色遮挡卡）</text>
  <rect x="360" y="100" width="40" height="40" fill="none" stroke="gray" stroke-width="1"/><text x="380" y="125" text-anchor="middle" font-size="12">空白</text>
  <rect x="405" y="100" width="40" height="40" fill="black"/><text x="425" y="125" text-anchor="middle" font-size="12" fill="white">遮挡</text>
  <rect x="450" y="100" width="40" height="40" fill="black"/><text x="470" y="125" text-anchor="middle" font-size="12" fill="white">遮挡</text>
  <rect x="495" y="100" width="40" height="40" fill="black"/><text x="515" y="125" text-anchor="middle" font-size="12" fill="white">遮挡</text>
  <!-- 预测目标 -->
  <rect x="220" y="160" width="120" height="30" fill="none" stroke="blue" stroke-width="1.5"/>
  <text x="280" y="180" text-anchor="middle" font-size="12" fill="blue">预测目标：我</text>

  <!-- 2. 第2步：预测“爱” -->
  <text x="900" y="70" text-anchor="middle" font-size="14" font-weight="bold">第2步：预测“爱”</text>
  <!-- 右移卡片 -->
  <rect x="650" y="90" width="250" height="60" fill="none" stroke="black" stroke-width="2"/>
  <text x="775" y="85" text-anchor="middle" font-size="12">右移卡片（答题素材卡）</text>
  <rect x="660" y="100" width="40" height="40" fill="none" stroke="gray" stroke-width="1"/><text x="680" y="125" text-anchor="middle" font-size="12">空白</text>
  <rect x="705" y="100" width="40" height="40" fill="none" stroke="gray" stroke-width="1"/><text x="725" y="125" text-anchor="middle" font-size="12">我</text>
  <rect x="750" y="100" width="40" height="40" fill="none" stroke="gray" stroke-width="1"/><text x="770" y="125" text-anchor="middle" font-size="12">爱</text>
  <rect x="795" y="100" width="40" height="40" fill="none" stroke="gray" stroke-width="1"/><text x="815" y="125" text-anchor="middle" font-size="12">吃</text>
  <!-- 掩码卡片 -->
  <rect x="950" y="90" width="250" height="60" fill="none" stroke="black" stroke-width="2"/>
  <text x="1075" y="85" text-anchor="middle" font-size="12">掩码卡片（黑色遮挡卡）</text>
  <rect x="960" y="100" width="40" height="40" fill="none" stroke="gray" stroke-width="1"/><text x="980" y="125" text-anchor="middle" font-size="12">空白</text>
  <rect x="1005" y="100" width="40" height="40" fill="none" stroke="gray" stroke-width="1"/><text x="1025" y="125" text-anchor="middle" font-size="12">我</text>
  <rect x="1050" y="100" width="40" height="40" fill="black"/><text x="1070" y="125" text-anchor="middle" font-size="12" fill="white">遮挡</text>
  <rect x="1095" y="100" width="40" height="40" fill="black"/><text x="1115" y="125" text-anchor="middle" font-size="12" fill="white">遮挡</text>
  <!-- 预测目标 -->
  <rect x="820" y="160" width="120" height="30" fill="none" stroke="blue" stroke-width="1.5"/>
  <text x="880" y="180" text-anchor="middle" font-size="12" fill="blue">预测目标：爱</text>

  <!-- 3. 第3步：预测“吃” -->
  <text x="300" y="250" text-anchor="middle" font-size="14" font-weight="bold">第3步：预测“吃”</text>
  <!-- 右移卡片 -->
  <rect x="50" y="270" width="250" height="60" fill="none" stroke="black" stroke-width="2"/>
  <text x="175" y="265" text-anchor="middle" font-size="12">右移卡片（答题素材卡）</text>
  <rect x="60" y="280" width="40" height="40" fill="none" stroke="gray" stroke-width="1"/><text x="80" y="305" text-anchor="middle" font-size="12">空白</text>
  <rect x="105" y="280" width="40" height="40" fill="none" stroke="gray" stroke-width="1"/><text x="125" y="305" text-anchor="middle" font-size="12">我</text>
  <rect x="150" y="280" width="40" height="40" fill="none" stroke="gray" stroke-width="1"/><text x="170" y="305" text-anchor="middle" font-size="12">爱</text>
  <rect x="195" y="280" width="40" height="40" fill="none" stroke="gray" stroke-width="1"/><text x="215" y="305" text-anchor="middle" font-size="12">吃</text>
  <!-- 掩码卡片 -->
  <rect x="350" y="270" width="250" height="60" fill="none" stroke="black" stroke-width="2"/>
  <text x="475" y="265" text-anchor="middle" font-size="12">掩码卡片（黑色遮挡卡）</text>
  <rect x="360" y="280" width="40" height="40" fill="none" stroke="gray" stroke-width="1"/><text x="380" y="305" text-anchor="middle" font-size="12">空白</text>
  <rect x="405" y="280" width="40" height="40" fill="none" stroke="gray" stroke-width="1"/><text x="425" y="305" text-anchor="middle" font-size="12">我</text>
  <rect x="450" y="280" width="40" height="40" fill="none" stroke="gray" stroke-width="1"/><text x="470" y="305" text-anchor="middle" font-size="12">爱</text>
  <rect x="495" y="280" width="40" height="40" fill="black"/><text x="515" y="305" text-anchor="middle" font-size="12" fill="white">遮挡</text>
  <!-- 预测目标 -->
  <rect x="220" y="340" width="120" height="30" fill="none" stroke="blue" stroke-width="1.5"/>
  <text x="280" y="360" text-anchor="middle" font-size="12" fill="blue">预测目标：吃</text>

  <!-- 4. 第4步：预测“苹果” -->
  <text x="900" y="250" text-anchor="middle" font-size="14" font-weight="bold">第4步：预测“苹果”</text>
  <!-- 右移卡片 -->
  <rect x="650" y="270" width="250" height="60" fill="none" stroke="black" stroke-width="2"/>
  <text x="775" y="265" text-anchor="middle" font-size="12">右移卡片（答题素材卡）</text>
  <rect x="660" y="280" width="40" height="40" fill="none" stroke="gray" stroke-width="1"/><text x="680" y="305" text-anchor="middle" font-size="12">空白</text>
  <rect x="705" y="280" width="40" height="40" fill="none" stroke="gray" stroke-width="1"/><text x="725" y="305" text-anchor="middle" font-size="12">我</text>
  <rect x="750" y="280" width="40" height="40" fill="none" stroke="gray" stroke-width="1"/><text x="770" y="305" text-anchor="middle" font-size="12">爱</text>
  <rect x="795" y="280" width="40" height="40" fill="none" stroke="gray" stroke-width="1"/><text x="815" y="305" text-anchor="middle" font-size="12">吃</text>
  <!-- 掩码卡片 -->
  <rect x="950" y="270" width="250" height="60" fill="none" stroke="black" stroke-width="2"/>
  <text x="1075" y="265" text-anchor="middle" font-size="12">掩码卡片（黑色遮挡卡）</text>
  <rect x="960" y="280" width="40" height="40" fill="none" stroke="gray" stroke-width="1"/><text x="980" y="305" text-anchor="middle" font-size="12">空白</text>
  <rect x="1005" y="280" width="40" height="40" fill="none" stroke="gray" stroke-width="1"/><text x="1025" y="305" text-anchor="middle" font-size="12">我</text>
  <rect x="1050" y="280" width="40" height="40" fill="none" stroke="gray" stroke-width="1"/><text x="1070" y="305" text-anchor="middle" font-size="12">爱</text>
  <rect x="1095" y="280" width="40" height="40" fill="none" stroke="gray" stroke-width="1"/><text x="1115" y="305" text-anchor="middle" font-size="12">吃</text>
  <!-- 预测目标 -->
  <rect x="820" y="340" width="120" height="30" fill="none" stroke="blue" stroke-width="1.5"/>
  <text x="880" y="360" text-anchor="middle" font-size="12" fill="blue">预测目标：苹果</text>

  <!-- 配合逻辑说明 -->
  <rect x="450" y="390" width="300" height="40" fill="none" stroke="gray" stroke-width="1"/>
  <text x="600" y="415" text-anchor="middle" font-size="12">逻辑：右移卡片提供错位素材，掩码卡片随步骤递减遮挡范围，确保仅能参考前文</text>
</svg>
